<?xml version="1.0" encoding="utf-8" standalone="no"?>
<!DOCTYPE svg PUBLIC "-//W3C//DTD SVG 1.1//EN"
  "http://www.w3.org/Graphics/SVG/1.1/DTD/svg11.dtd">
<svg xmlns:xlink="http://www.w3.org/1999/xlink" width="683.879687pt" height="383.387745pt" viewBox="0 0 683.879687 383.387745" xmlns="http://www.w3.org/2000/svg" version="1.1">
 <metadata>
  <rdf:RDF xmlns:dc="http://purl.org/dc/elements/1.1/" xmlns:cc="http://creativecommons.org/ns#" xmlns:rdf="http://www.w3.org/1999/02/22-rdf-syntax-ns#">
   <cc:Work>
    <dc:type rdf:resource="http://purl.org/dc/dcmitype/StillImage"/>
    <dc:date>2026-04-21T07:22:03.278630</dc:date>
    <dc:format>image/svg+xml</dc:format>
    <dc:creator>
     <cc:Agent>
      <dc:title>Matplotlib v3.10.0, https://matplotlib.org/</dc:title>
     </cc:Agent>
    </dc:creator>
   </cc:Work>
  </rdf:RDF>
 </metadata>
 <defs>
  <style type="text/css">*{stroke-linejoin: round; stroke-linecap: butt}</style>
 </defs>
 <g id="figure_1">
  <g id="patch_1">
   <path d="M 0 383.387745 
L 683.879687 383.387745 
L 683.879687 0 
L 0 0 
z
" style="fill: #fbf8f7"/>
  </g>
  <g id="axes_1">
   <g id="patch_2">
    <path d="M 74.039688 321.696 
L 676.679688 321.696 
L 676.679688 47.52 
L 74.039688 47.52 
z
" style="fill: #fbf8f7"/>
   </g>
   <g id="matplotlib.axis_1">
    <g id="xtick_1">
     <g id="line2d_1">
      <path d="M 101.432415 321.696 
L 101.432415 47.52 
" clip-path="url(#p7e56cba291)" style="fill: none; stroke: #e8dde0; stroke-width: 0.8; stroke-linecap: square"/>
     </g>
     <g id="line2d_2">
      <defs>
       <path id="ma9ced227c1" d="M 0 0 
L 0 3.5 
" style="stroke: #2b2325; stroke-width: 0.8"/>
      </defs>
      <g>
       <use xlink:href="#ma9ced227c1" x="101.432415" y="321.696" style="fill: #2b2325; stroke: #2b2325; stroke-width: 0.8"/>
      </g>
     </g>
     <g id="text_1">
      <text style="font-size: 10px; font-family: 'Songti SC', 'STSong', 'PingFang SC', 'Hiragino Sans GB', 'Arial Unicode MS', 'Noto Sans CJK SC', 'DejaVu Sans', sans-serif; text-anchor: middle; fill: #2b2325" x="101.432415" y="335.896" transform="rotate(-0 101.432415 335.896)">2009</text>
     </g>
    </g>
    <g id="xtick_2">
     <g id="line2d_3">
      <path d="M 211.003324 321.696 
L 211.003324 47.52 
" clip-path="url(#p7e56cba291)" style="fill: none; stroke: #e8dde0; stroke-width: 0.8; stroke-linecap: square"/>
     </g>
     <g id="line2d_4">
      <g>
       <use xlink:href="#ma9ced227c1" x="211.003324" y="321.696" style="fill: #2b2325; stroke: #2b2325; stroke-width: 0.8"/>
      </g>
     </g>
     <g id="text_2">
      <text style="font-size: 10px; font-family: 'Songti SC', 'STSong', 'PingFang SC', 'Hiragino Sans GB', 'Arial Unicode MS', 'Noto Sans CJK SC', 'DejaVu Sans', sans-serif; text-anchor: middle; fill: #2b2325" x="211.003324" y="335.896" transform="rotate(-0 211.003324 335.896)">2012</text>
     </g>
    </g>
    <g id="xtick_3">
     <g id="line2d_5">
      <path d="M 247.52696 321.696 
L 247.52696 47.52 
" clip-path="url(#p7e56cba291)" style="fill: none; stroke: #e8dde0; stroke-width: 0.8; stroke-linecap: square"/>
     </g>
     <g id="line2d_6">
      <g>
       <use xlink:href="#ma9ced227c1" x="247.52696" y="321.696" style="fill: #2b2325; stroke: #2b2325; stroke-width: 0.8"/>
      </g>
     </g>
     <g id="text_3">
      <text style="font-size: 10px; font-family: 'Songti SC', 'STSong', 'PingFang SC', 'Hiragino Sans GB', 'Arial Unicode MS', 'Noto Sans CJK SC', 'DejaVu Sans', sans-serif; text-anchor: middle; fill: #2b2325" x="247.52696" y="335.896" transform="rotate(-0 247.52696 335.896)">2013</text>
     </g>
    </g>
    <g id="xtick_4">
     <g id="line2d_7">
      <path d="M 284.050597 321.696 
L 284.050597 47.52 
" clip-path="url(#p7e56cba291)" style="fill: none; stroke: #e8dde0; stroke-width: 0.8; stroke-linecap: square"/>
     </g>
     <g id="line2d_8">
      <g>
       <use xlink:href="#ma9ced227c1" x="284.050597" y="321.696" style="fill: #2b2325; stroke: #2b2325; stroke-width: 0.8"/>
      </g>
     </g>
     <g id="text_4">
      <text style="font-size: 10px; font-family: 'Songti SC', 'STSong', 'PingFang SC', 'Hiragino Sans GB', 'Arial Unicode MS', 'Noto Sans CJK SC', 'DejaVu Sans', sans-serif; text-anchor: middle; fill: #2b2325" x="284.050597" y="335.896" transform="rotate(-0 284.050597 335.896)">2014</text>
     </g>
    </g>
    <g id="xtick_5">
     <g id="line2d_9">
      <path d="M 320.574233 321.696 
L 320.574233 47.52 
" clip-path="url(#p7e56cba291)" style="fill: none; stroke: #e8dde0; stroke-width: 0.8; stroke-linecap: square"/>
     </g>
     <g id="line2d_10">
      <g>
       <use xlink:href="#ma9ced227c1" x="320.574233" y="321.696" style="fill: #2b2325; stroke: #2b2325; stroke-width: 0.8"/>
      </g>
     </g>
     <g id="text_5">
      <text style="font-size: 10px; font-family: 'Songti SC', 'STSong', 'PingFang SC', 'Hiragino Sans GB', 'Arial Unicode MS', 'Noto Sans CJK SC', 'DejaVu Sans', sans-serif; text-anchor: middle; fill: #2b2325" x="320.574233" y="335.896" transform="rotate(-0 320.574233 335.896)">2015</text>
     </g>
    </g>
    <g id="xtick_6">
     <g id="line2d_11">
      <path d="M 357.097869 321.696 
L 357.097869 47.52 
" clip-path="url(#p7e56cba291)" style="fill: none; stroke: #e8dde0; stroke-width: 0.8; stroke-linecap: square"/>
     </g>
     <g id="line2d_12">
      <g>
       <use xlink:href="#ma9ced227c1" x="357.097869" y="321.696" style="fill: #2b2325; stroke: #2b2325; stroke-width: 0.8"/>
      </g>
     </g>
     <g id="text_6">
      <text style="font-size: 10px; font-family: 'Songti SC', 'STSong', 'PingFang SC', 'Hiragino Sans GB', 'Arial Unicode MS', 'Noto Sans CJK SC', 'DejaVu Sans', sans-serif; text-anchor: middle; fill: #2b2325" x="357.097869" y="335.896" transform="rotate(-0 357.097869 335.896)">2016</text>
     </g>
    </g>
    <g id="xtick_7">
     <g id="line2d_13">
      <path d="M 393.621506 321.696 
L 393.621506 47.52 
" clip-path="url(#p7e56cba291)" style="fill: none; stroke: #e8dde0; stroke-width: 0.8; stroke-linecap: square"/>
     </g>
     <g id="line2d_14">
      <g>
       <use xlink:href="#ma9ced227c1" x="393.621506" y="321.696" style="fill: #2b2325; stroke: #2b2325; stroke-width: 0.8"/>
      </g>
     </g>
     <g id="text_7">
      <text style="font-size: 10px; font-family: 'Songti SC', 'STSong', 'PingFang SC', 'Hiragino Sans GB', 'Arial Unicode MS', 'Noto Sans CJK SC', 'DejaVu Sans', sans-serif; text-anchor: middle; fill: #2b2325" x="393.621506" y="335.896" transform="rotate(-0 393.621506 335.896)">2017</text>
     </g>
    </g>
    <g id="xtick_8">
     <g id="line2d_15">
      <path d="M 430.145142 321.696 
L 430.145142 47.52 
" clip-path="url(#p7e56cba291)" style="fill: none; stroke: #e8dde0; stroke-width: 0.8; stroke-linecap: square"/>
     </g>
     <g id="line2d_16">
      <g>
       <use xlink:href="#ma9ced227c1" x="430.145142" y="321.696" style="fill: #2b2325; stroke: #2b2325; stroke-width: 0.8"/>
      </g>
     </g>
     <g id="text_8">
      <text style="font-size: 10px; font-family: 'Songti SC', 'STSong', 'PingFang SC', 'Hiragino Sans GB', 'Arial Unicode MS', 'Noto Sans CJK SC', 'DejaVu Sans', sans-serif; text-anchor: middle; fill: #2b2325" x="430.145142" y="335.896" transform="rotate(-0 430.145142 335.896)">2018</text>
     </g>
    </g>
    <g id="xtick_9">
     <g id="line2d_17">
      <path d="M 466.668778 321.696 
L 466.668778 47.52 
" clip-path="url(#p7e56cba291)" style="fill: none; stroke: #e8dde0; stroke-width: 0.8; stroke-linecap: square"/>
     </g>
     <g id="line2d_18">
      <g>
       <use xlink:href="#ma9ced227c1" x="466.668778" y="321.696" style="fill: #2b2325; stroke: #2b2325; stroke-width: 0.8"/>
      </g>
     </g>
     <g id="text_9">
      <text style="font-size: 10px; font-family: 'Songti SC', 'STSong', 'PingFang SC', 'Hiragino Sans GB', 'Arial Unicode MS', 'Noto Sans CJK SC', 'DejaVu Sans', sans-serif; text-anchor: middle; fill: #2b2325" x="466.668778" y="335.896" transform="rotate(-0 466.668778 335.896)">2019</text>
     </g>
    </g>
    <g id="xtick_10">
     <g id="line2d_19">
      <path d="M 503.192415 321.696 
L 503.192415 47.52 
" clip-path="url(#p7e56cba291)" style="fill: none; stroke: #e8dde0; stroke-width: 0.8; stroke-linecap: square"/>
     </g>
     <g id="line2d_20">
      <g>
       <use xlink:href="#ma9ced227c1" x="503.192415" y="321.696" style="fill: #2b2325; stroke: #2b2325; stroke-width: 0.8"/>
      </g>
     </g>
     <g id="text_10">
      <text style="font-size: 10px; font-family: 'Songti SC', 'STSong', 'PingFang SC', 'Hiragino Sans GB', 'Arial Unicode MS', 'Noto Sans CJK SC', 'DejaVu Sans', sans-serif; text-anchor: middle; fill: #2b2325" x="503.192415" y="335.896" transform="rotate(-0 503.192415 335.896)">2020</text>
     </g>
    </g>
    <g id="xtick_11">
     <g id="line2d_21">
      <path d="M 539.716051 321.696 
L 539.716051 47.52 
" clip-path="url(#p7e56cba291)" style="fill: none; stroke: #e8dde0; stroke-width: 0.8; stroke-linecap: square"/>
     </g>
     <g id="line2d_22">
      <g>
       <use xlink:href="#ma9ced227c1" x="539.716051" y="321.696" style="fill: #2b2325; stroke: #2b2325; stroke-width: 0.8"/>
      </g>
     </g>
     <g id="text_11">
      <text style="font-size: 10px; font-family: 'Songti SC', 'STSong', 'PingFang SC', 'Hiragino Sans GB', 'Arial Unicode MS', 'Noto Sans CJK SC', 'DejaVu Sans', sans-serif; text-anchor: middle; fill: #2b2325" x="539.716051" y="335.896" transform="rotate(-0 539.716051 335.896)">2021</text>
     </g>
    </g>
    <g id="xtick_12">
     <g id="line2d_23">
      <path d="M 576.239687 321.696 
L 576.239687 47.52 
" clip-path="url(#p7e56cba291)" style="fill: none; stroke: #e8dde0; stroke-width: 0.8; stroke-linecap: square"/>
     </g>
     <g id="line2d_24">
      <g>
       <use xlink:href="#ma9ced227c1" x="576.239687" y="321.696" style="fill: #2b2325; stroke: #2b2325; stroke-width: 0.8"/>
      </g>
     </g>
     <g id="text_12">
      <text style="font-size: 10px; font-family: 'Songti SC', 'STSong', 'PingFang SC', 'Hiragino Sans GB', 'Arial Unicode MS', 'Noto Sans CJK SC', 'DejaVu Sans', sans-serif; text-anchor: middle; fill: #2b2325" x="576.239687" y="335.896" transform="rotate(-0 576.239687 335.896)">2022</text>
     </g>
    </g>
    <g id="xtick_13">
     <g id="line2d_25">
      <path d="M 612.763324 321.696 
L 612.763324 47.52 
" clip-path="url(#p7e56cba291)" style="fill: none; stroke: #e8dde0; stroke-width: 0.8; stroke-linecap: square"/>
     </g>
     <g id="line2d_26">
      <g>
       <use xlink:href="#ma9ced227c1" x="612.763324" y="321.696" style="fill: #2b2325; stroke: #2b2325; stroke-width: 0.8"/>
      </g>
     </g>
     <g id="text_13">
      <text style="font-size: 10px; font-family: 'Songti SC', 'STSong', 'PingFang SC', 'Hiragino Sans GB', 'Arial Unicode MS', 'Noto Sans CJK SC', 'DejaVu Sans', sans-serif; text-anchor: middle; fill: #2b2325" x="612.763324" y="335.896" transform="rotate(-0 612.763324 335.896)">2023</text>
     </g>
    </g>
    <g id="xtick_14">
     <g id="line2d_27">
      <path d="M 649.28696 321.696 
L 649.28696 47.52 
" clip-path="url(#p7e56cba291)" style="fill: none; stroke: #e8dde0; stroke-width: 0.8; stroke-linecap: square"/>
     </g>
     <g id="line2d_28">
      <g>
       <use xlink:href="#ma9ced227c1" x="649.28696" y="321.696" style="fill: #2b2325; stroke: #2b2325; stroke-width: 0.8"/>
      </g>
     </g>
     <g id="text_14">
      <text style="font-size: 10px; font-family: 'Songti SC', 'STSong', 'PingFang SC', 'Hiragino Sans GB', 'Arial Unicode MS', 'Noto Sans CJK SC', 'DejaVu Sans', sans-serif; text-anchor: middle; fill: #2b2325" x="649.28696" y="335.896" transform="rotate(-0 649.28696 335.896)">2024</text>
     </g>
    </g>
    <g id="text_15">
     <text style="font-size: 11px; font-family: 'Songti SC', 'STSong', 'PingFang SC', 'Hiragino Sans GB', 'Arial Unicode MS', 'Noto Sans CJK SC', 'DejaVu Sans', sans-serif; text-anchor: middle; fill: #2b2325" x="375.359688" y="349.206625" transform="rotate(-0 375.359688 349.206625)">Year</text>
    </g>
   </g>
   <g id="matplotlib.axis_2">
    <g id="ytick_1">
     <g id="line2d_29">
      <defs>
       <path id="me805d938aa" d="M 0 0 
L -3.5 0 
" style="stroke: #2b2325; stroke-width: 0.8"/>
      </defs>
      <g>
       <use xlink:href="#me805d938aa" x="74.039688" y="309.233455" style="fill: #2b2325; stroke: #2b2325; stroke-width: 0.8"/>
      </g>
     </g>
     <g id="text_16">
      <text style="font-size: 10px; font-family: 'Songti SC', 'STSong', 'PingFang SC', 'Hiragino Sans GB', 'Arial Unicode MS', 'Noto Sans CJK SC', 'DejaVu Sans', sans-serif; text-anchor: end; fill: #2b2325" x="67.039688" y="312.833455" transform="rotate(-0 67.039688 312.833455)">Other</text>
     </g>
    </g>
    <g id="ytick_2">
     <g id="line2d_30">
      <g>
       <use xlink:href="#me805d938aa" x="74.039688" y="259.383273" style="fill: #2b2325; stroke: #2b2325; stroke-width: 0.8"/>
      </g>
     </g>
     <g id="text_17">
      <text style="font-size: 10px; font-family: 'Songti SC', 'STSong', 'PingFang SC', 'Hiragino Sans GB', 'Arial Unicode MS', 'Noto Sans CJK SC', 'DejaVu Sans', sans-serif; text-anchor: end; fill: #2b2325" x="67.039688" y="262.983273" transform="rotate(-0 67.039688 262.983273)">Tech std.</text>
     </g>
    </g>
    <g id="ytick_3">
     <g id="line2d_31">
      <g>
       <use xlink:href="#me805d938aa" x="74.039688" y="209.533091" style="fill: #2b2325; stroke: #2b2325; stroke-width: 0.8"/>
      </g>
     </g>
     <g id="text_18">
      <text style="font-size: 10px; font-family: 'Songti SC', 'STSong', 'PingFang SC', 'Hiragino Sans GB', 'Arial Unicode MS', 'Noto Sans CJK SC', 'DejaVu Sans', sans-serif; text-anchor: end; fill: #2b2325" x="67.039688" y="213.133091" transform="rotate(-0 67.039688 213.133091)">Policy doc</text>
     </g>
    </g>
    <g id="ytick_4">
     <g id="line2d_32">
      <g>
       <use xlink:href="#me805d938aa" x="74.039688" y="159.682909" style="fill: #2b2325; stroke: #2b2325; stroke-width: 0.8"/>
      </g>
     </g>
     <g id="text_19">
      <text style="font-size: 10px; font-family: 'Songti SC', 'STSong', 'PingFang SC', 'Hiragino Sans GB', 'Arial Unicode MS', 'Noto Sans CJK SC', 'DejaVu Sans', sans-serif; text-anchor: end; fill: #2b2325" x="67.039688" y="163.282909" transform="rotate(-0 67.039688 163.282909)">Admin rule</text>
     </g>
    </g>
    <g id="ytick_5">
     <g id="line2d_33">
      <g>
       <use xlink:href="#me805d938aa" x="74.039688" y="109.832727" style="fill: #2b2325; stroke: #2b2325; stroke-width: 0.8"/>
      </g>
     </g>
     <g id="text_20">
      <text style="font-size: 10px; font-family: 'Songti SC', 'STSong', 'PingFang SC', 'Hiragino Sans GB', 'Arial Unicode MS', 'Noto Sans CJK SC', 'DejaVu Sans', sans-serif; text-anchor: end; fill: #2b2325" x="67.039688" y="113.432727" transform="rotate(-0 67.039688 113.432727)">Regulation</text>
     </g>
    </g>
    <g id="ytick_6">
     <g id="line2d_34">
      <g>
       <use xlink:href="#me805d938aa" x="74.039688" y="59.982545" style="fill: #2b2325; stroke: #2b2325; stroke-width: 0.8"/>
      </g>
     </g>
     <g id="text_21">
      <text style="font-size: 10px; font-family: 'Songti SC', 'STSong', 'PingFang SC', 'Hiragino Sans GB', 'Arial Unicode MS', 'Noto Sans CJK SC', 'DejaVu Sans', sans-serif; text-anchor: end; fill: #2b2325" x="67.039688" y="63.582545" transform="rotate(-0 67.039688 63.582545)">Law</text>
     </g>
    </g>
    <g id="text_22">
     <text style="font-size: 11px; font-family: 'Songti SC', 'STSong', 'PingFang SC', 'Hiragino Sans GB', 'Arial Unicode MS', 'Noto Sans CJK SC', 'DejaVu Sans', sans-serif; text-anchor: middle; fill: #2b2325" x="15.12" y="184.608" transform="rotate(-90 15.12 184.608)">Document family</text>
    </g>
   </g>
   <g id="patch_3">
    <path d="M 74.039688 321.696 
L 74.039688 47.52 
" style="fill: none; stroke: #d8ccd0; stroke-width: 0.8; stroke-linejoin: miter; stroke-linecap: square"/>
   </g>
   <g id="patch_4">
    <path d="M 74.039688 321.696 
L 676.679688 321.696 
" style="fill: none; stroke: #d8ccd0; stroke-width: 0.8; stroke-linejoin: miter; stroke-linecap: square"/>
   </g>
   <g id="PathCollection_1">
    <path d="M 247.52696 214.406488 
C 248.8194 214.406488 250.059079 213.892996 250.972972 212.979103 
C 251.886866 212.06521 252.400357 210.825531 252.400357 209.533091 
C 252.400357 208.240651 251.886866 207.000972 250.972972 206.087079 
C 250.059079 205.173186 248.8194 204.659694 247.52696 204.659694 
C 246.23452 204.659694 244.994841 205.173186 244.080948 206.087079 
C 243.167055 207.000972 242.653563 208.240651 242.653563 209.533091 
C 242.653563 210.825531 243.167055 212.06521 244.080948 212.979103 
C 244.994841 213.892996 246.23452 214.406488 247.52696 214.406488 
z
" clip-path="url(#p7e56cba291)" style="fill: #971f30; fill-opacity: 0.9; stroke: #ffffff; stroke-opacity: 0.9; stroke-width: 0.8"/>
    <path d="M 320.574233 214.406488 
C 321.866673 214.406488 323.106352 213.892996 324.020245 212.979103 
C 324.934138 212.06521 325.44763 210.825531 325.44763 209.533091 
C 325.44763 208.240651 324.934138 207.000972 324.020245 206.087079 
C 323.106352 205.173186 321.866673 204.659694 320.574233 204.659694 
C 319.281793 204.659694 318.042114 205.173186 317.128221 206.087079 
C 316.214328 207.000972 315.700836 208.240651 315.700836 209.533091 
C 315.700836 210.825531 316.214328 212.06521 317.128221 212.979103 
C 318.042114 213.892996 319.281793 214.406488 320.574233 214.406488 
z
" clip-path="url(#p7e56cba291)" style="fill: #971f30; fill-opacity: 0.9; stroke: #ffffff; stroke-opacity: 0.9; stroke-width: 0.8"/>
    <path d="M 357.097869 214.406488 
C 358.390309 214.406488 359.629988 213.892996 360.543882 212.979103 
C 361.457775 212.06521 361.971266 210.825531 361.971266 209.533091 
C 361.971266 208.240651 361.457775 207.000972 360.543882 206.087079 
C 359.629988 205.173186 358.390309 204.659694 357.097869 204.659694 
C 355.805429 204.659694 354.56575 205.173186 353.651857 206.087079 
C 352.737964 207.000972 352.224472 208.240651 352.224472 209.533091 
C 352.224472 210.825531 352.737964 212.06521 353.651857 212.979103 
C 354.56575 213.892996 355.805429 214.406488 357.097869 214.406488 
z
" clip-path="url(#p7e56cba291)" style="fill: #971f30; fill-opacity: 0.9; stroke: #ffffff; stroke-opacity: 0.9; stroke-width: 0.8"/>
    <path d="M 357.097869 64.855943 
C 358.390309 64.855943 359.629988 64.342451 360.543882 63.428558 
C 361.457775 62.514665 361.971266 61.274985 361.971266 59.982545 
C 361.971266 58.690105 361.457775 57.450426 360.543882 56.536533 
C 359.629988 55.62264 358.390309 55.109148 357.097869 55.109148 
C 355.805429 55.109148 354.56575 55.62264 353.651857 56.536533 
C 352.737964 57.450426 352.224472 58.690105 352.224472 59.982545 
C 352.224472 61.274985 352.737964 62.514665 353.651857 63.428558 
C 354.56575 64.342451 355.805429 64.855943 357.097869 64.855943 
z
" clip-path="url(#p7e56cba291)" style="fill: #971f30; fill-opacity: 0.9; stroke: #ffffff; stroke-opacity: 0.9; stroke-width: 0.8"/>
    <path d="M 539.716051 164.556306 
C 541.008491 164.556306 542.24817 164.042814 543.162063 163.128921 
C 544.075956 162.215028 544.589448 160.975349 544.589448 159.682909 
C 544.589448 158.390469 544.075956 157.15079 543.162063 156.236897 
C 542.24817 155.323004 541.008491 154.809512 539.716051 154.809512 
C 538.423611 154.809512 537.183932 155.323004 536.270039 156.236897 
C 535.356146 157.15079 534.842654 158.390469 534.842654 159.682909 
C 534.842654 160.975349 535.356146 162.215028 536.270039 163.128921 
C 537.183932 164.042814 538.423611 164.556306 539.716051 164.556306 
z
" clip-path="url(#p7e56cba291)" style="fill: #971f30; fill-opacity: 0.9; stroke: #ffffff; stroke-opacity: 0.9; stroke-width: 0.8"/>
    <path d="M 284.050597 64.855943 
C 285.343037 64.855943 286.582716 64.342451 287.496609 63.428558 
C 288.410502 62.514665 288.923994 61.274985 288.923994 59.982545 
C 288.923994 58.690105 288.410502 57.450426 287.496609 56.536533 
C 286.582716 55.62264 285.343037 55.109148 284.050597 55.109148 
C 282.758157 55.109148 281.518478 55.62264 280.604584 56.536533 
C 279.690691 57.450426 279.177199 58.690105 279.177199 59.982545 
C 279.177199 61.274985 279.690691 62.514665 280.604584 63.428558 
C 281.518478 64.342451 282.758157 64.855943 284.050597 64.855943 
z
" clip-path="url(#p7e56cba291)" style="fill: #971f30; fill-opacity: 0.9; stroke: #ffffff; stroke-opacity: 0.9; stroke-width: 0.8"/>
    <path d="M 539.716051 214.406488 
C 541.008491 214.406488 542.24817 213.892996 543.162063 212.979103 
C 544.075956 212.06521 544.589448 210.825531 544.589448 209.533091 
C 544.589448 208.240651 544.075956 207.000972 543.162063 206.087079 
C 542.24817 205.173186 541.008491 204.659694 539.716051 204.659694 
C 538.423611 204.659694 537.183932 205.173186 536.270039 206.087079 
C 535.356146 207.000972 534.842654 208.240651 534.842654 209.533091 
C 534.842654 210.825531 535.356146 212.06521 536.270039 212.979103 
C 537.183932 213.892996 538.423611 214.406488 539.716051 214.406488 
z
" clip-path="url(#p7e56cba291)" style="fill: #971f30; fill-opacity: 0.9; stroke: #ffffff; stroke-opacity: 0.9; stroke-width: 0.8"/>
    <path d="M 539.716051 114.706124 
C 541.008491 114.706124 542.24817 114.192633 543.162063 113.278739 
C 544.075956 112.364846 544.589448 111.125167 544.589448 109.832727 
C 544.589448 108.540287 544.075956 107.300608 543.162063 106.386715 
C 542.24817 105.472822 541.008491 104.95933 539.716051 104.95933 
C 538.423611 104.95933 537.183932 105.472822 536.270039 106.386715 
C 535.356146 107.300608 534.842654 108.540287 534.842654 109.832727 
C 534.842654 111.125167 535.356146 112.364846 536.270039 113.278739 
C 537.183932 114.192633 538.423611 114.706124 539.716051 114.706124 
z
" clip-path="url(#p7e56cba291)" style="fill: #971f30; fill-opacity: 0.9; stroke: #ffffff; stroke-opacity: 0.9; stroke-width: 0.8"/>
    <path d="M 539.716051 164.556306 
C 541.008491 164.556306 542.24817 164.042814 543.162063 163.128921 
C 544.075956 162.215028 544.589448 160.975349 544.589448 159.682909 
C 544.589448 158.390469 544.075956 157.15079 543.162063 156.236897 
C 542.24817 155.323004 541.008491 154.809512 539.716051 154.809512 
C 538.423611 154.809512 537.183932 155.323004 536.270039 156.236897 
C 535.356146 157.15079 534.842654 158.390469 534.842654 159.682909 
C 534.842654 160.975349 535.356146 162.215028 536.270039 163.128921 
C 537.183932 164.042814 538.423611 164.556306 539.716051 164.556306 
z
" clip-path="url(#p7e56cba291)" style="fill: #971f30; fill-opacity: 0.9; stroke: #ffffff; stroke-opacity: 0.9; stroke-width: 0.8"/>
    <path d="M 393.621506 64.855943 
C 394.913946 64.855943 396.153625 64.342451 397.067518 63.428558 
C 397.981411 62.514665 398.494903 61.274985 398.494903 59.982545 
C 398.494903 58.690105 397.981411 57.450426 397.067518 56.536533 
C 396.153625 55.62264 394.913946 55.109148 393.621506 55.109148 
C 392.329066 55.109148 391.089387 55.62264 390.175493 56.536533 
C 389.2616 57.450426 388.748109 58.690105 388.748109 59.982545 
C 388.748109 61.274985 389.2616 62.514665 390.175493 63.428558 
C 391.089387 64.342451 392.329066 64.855943 393.621506 64.855943 
z
" clip-path="url(#p7e56cba291)" style="fill: #971f30; fill-opacity: 0.9; stroke: #ffffff; stroke-opacity: 0.9; stroke-width: 0.8"/>
    <path d="M 430.145142 64.855943 
C 431.437582 64.855943 432.677261 64.342451 433.591154 63.428558 
C 434.505047 62.514665 435.018539 61.274985 435.018539 59.982545 
C 435.018539 58.690105 434.505047 57.450426 433.591154 56.536533 
C 432.677261 55.62264 431.437582 55.109148 430.145142 55.109148 
C 428.852702 55.109148 427.613023 55.62264 426.69913 56.536533 
C 425.785237 57.450426 425.271745 58.690105 425.271745 59.982545 
C 425.271745 61.274985 425.785237 62.514665 426.69913 63.428558 
C 427.613023 64.342451 428.852702 64.855943 430.145142 64.855943 
z
" clip-path="url(#p7e56cba291)" style="fill: #971f30; fill-opacity: 0.9; stroke: #ffffff; stroke-opacity: 0.9; stroke-width: 0.8"/>
    <path d="M 503.192415 64.855943 
C 504.484855 64.855943 505.724534 64.342451 506.638427 63.428558 
C 507.55232 62.514665 508.065812 61.274985 508.065812 59.982545 
C 508.065812 58.690105 507.55232 57.450426 506.638427 56.536533 
C 505.724534 55.62264 504.484855 55.109148 503.192415 55.109148 
C 501.899975 55.109148 500.660296 55.62264 499.746403 56.536533 
C 498.832509 57.450426 498.319018 58.690105 498.319018 59.982545 
C 498.319018 61.274985 498.832509 62.514665 499.746403 63.428558 
C 500.660296 64.342451 501.899975 64.855943 503.192415 64.855943 
z
" clip-path="url(#p7e56cba291)" style="fill: #971f30; fill-opacity: 0.9; stroke: #ffffff; stroke-opacity: 0.9; stroke-width: 0.8"/>
    <path d="M 430.145142 64.855943 
C 431.437582 64.855943 432.677261 64.342451 433.591154 63.428558 
C 434.505047 62.514665 435.018539 61.274985 435.018539 59.982545 
C 435.018539 58.690105 434.505047 57.450426 433.591154 56.536533 
C 432.677261 55.62264 431.437582 55.109148 430.145142 55.109148 
C 428.852702 55.109148 427.613023 55.62264 426.69913 56.536533 
C 425.785237 57.450426 425.271745 58.690105 425.271745 59.982545 
C 425.271745 61.274985 425.785237 62.514665 426.69913 63.428558 
C 427.613023 64.342451 428.852702 64.855943 430.145142 64.855943 
z
" clip-path="url(#p7e56cba291)" style="fill: #971f30; fill-opacity: 0.9; stroke: #ffffff; stroke-opacity: 0.9; stroke-width: 0.8"/>
    <path d="M 430.145142 64.855943 
C 431.437582 64.855943 432.677261 64.342451 433.591154 63.428558 
C 434.505047 62.514665 435.018539 61.274985 435.018539 59.982545 
C 435.018539 58.690105 434.505047 57.450426 433.591154 56.536533 
C 432.677261 55.62264 431.437582 55.109148 430.145142 55.109148 
C 428.852702 55.109148 427.613023 55.62264 426.69913 56.536533 
C 425.785237 57.450426 425.271745 58.690105 425.271745 59.982545 
C 425.271745 61.274985 425.785237 62.514665 426.69913 63.428558 
C 427.613023 64.342451 428.852702 64.855943 430.145142 64.855943 
z
" clip-path="url(#p7e56cba291)" style="fill: #971f30; fill-opacity: 0.9; stroke: #ffffff; stroke-opacity: 0.9; stroke-width: 0.8"/>
    <path d="M 612.763324 64.855943 
C 614.055764 64.855943 615.295443 64.342451 616.209336 63.428558 
C 617.123229 62.514665 617.636721 61.274985 617.636721 59.982545 
C 617.636721 58.690105 617.123229 57.450426 616.209336 56.536533 
C 615.295443 55.62264 614.055764 55.109148 612.763324 55.109148 
C 611.470884 55.109148 610.231205 55.62264 609.317312 56.536533 
C 608.403419 57.450426 607.889927 58.690105 607.889927 59.982545 
C 607.889927 61.274985 608.403419 62.514665 609.317312 63.428558 
C 610.231205 64.342451 611.470884 64.855943 612.763324 64.855943 
z
" clip-path="url(#p7e56cba291)" style="fill: #971f30; fill-opacity: 0.9; stroke: #ffffff; stroke-opacity: 0.9; stroke-width: 0.8"/>
    <path d="M 503.192415 64.855943 
C 504.484855 64.855943 505.724534 64.342451 506.638427 63.428558 
C 507.55232 62.514665 508.065812 61.274985 508.065812 59.982545 
C 508.065812 58.690105 507.55232 57.450426 506.638427 56.536533 
C 505.724534 55.62264 504.484855 55.109148 503.192415 55.109148 
C 501.899975 55.109148 500.660296 55.62264 499.746403 56.536533 
C 498.832509 57.450426 498.319018 58.690105 498.319018 59.982545 
C 498.319018 61.274985 498.832509 62.514665 499.746403 63.428558 
C 500.660296 64.342451 501.899975 64.855943 503.192415 64.855943 
z
" clip-path="url(#p7e56cba291)" style="fill: #971f30; fill-opacity: 0.9; stroke: #ffffff; stroke-opacity: 0.9; stroke-width: 0.8"/>
    <path d="M 576.239687 64.855943 
C 577.532128 64.855943 578.771807 64.342451 579.6857 63.428558 
C 580.599593 62.514665 581.113085 61.274985 581.113085 59.982545 
C 581.113085 58.690105 580.599593 57.450426 579.6857 56.536533 
C 578.771807 55.62264 577.532128 55.109148 576.239687 55.109148 
C 574.947247 55.109148 573.707568 55.62264 572.793675 56.536533 
C 571.879782 57.450426 571.36629 58.690105 571.36629 59.982545 
C 571.36629 61.274985 571.879782 62.514665 572.793675 63.428558 
C 573.707568 64.342451 574.947247 64.855943 576.239687 64.855943 
z
" clip-path="url(#p7e56cba291)" style="fill: #971f30; fill-opacity: 0.9; stroke: #ffffff; stroke-opacity: 0.9; stroke-width: 0.8"/>
    <path d="M 539.716051 64.855943 
C 541.008491 64.855943 542.24817 64.342451 543.162063 63.428558 
C 544.075956 62.514665 544.589448 61.274985 544.589448 59.982545 
C 544.589448 58.690105 544.075956 57.450426 543.162063 56.536533 
C 542.24817 55.62264 541.008491 55.109148 539.716051 55.109148 
C 538.423611 55.109148 537.183932 55.62264 536.270039 56.536533 
C 535.356146 57.450426 534.842654 58.690105 534.842654 59.982545 
C 534.842654 61.274985 535.356146 62.514665 536.270039 63.428558 
C 537.183932 64.342451 538.423611 64.855943 539.716051 64.855943 
z
" clip-path="url(#p7e56cba291)" style="fill: #971f30; fill-opacity: 0.9; stroke: #ffffff; stroke-opacity: 0.9; stroke-width: 0.8"/>
    <path d="M 211.003324 64.855943 
C 212.295764 64.855943 213.535443 64.342451 214.449336 63.428558 
C 215.363229 62.514665 215.876721 61.274985 215.876721 59.982545 
C 215.876721 58.690105 215.363229 57.450426 214.449336 56.536533 
C 213.535443 55.62264 212.295764 55.109148 211.003324 55.109148 
C 209.710884 55.109148 208.471205 55.62264 207.557312 56.536533 
C 206.643419 57.450426 206.129927 58.690105 206.129927 59.982545 
C 206.129927 61.274985 206.643419 62.514665 207.557312 63.428558 
C 208.471205 64.342451 209.710884 64.855943 211.003324 64.855943 
z
" clip-path="url(#p7e56cba291)" style="fill: #971f30; fill-opacity: 0.9; stroke: #ffffff; stroke-opacity: 0.9; stroke-width: 0.8"/>
    <path d="M 430.145142 64.855943 
C 431.437582 64.855943 432.677261 64.342451 433.591154 63.428558 
C 434.505047 62.514665 435.018539 61.274985 435.018539 59.982545 
C 435.018539 58.690105 434.505047 57.450426 433.591154 56.536533 
C 432.677261 55.62264 431.437582 55.109148 430.145142 55.109148 
C 428.852702 55.109148 427.613023 55.62264 426.69913 56.536533 
C 425.785237 57.450426 425.271745 58.690105 425.271745 59.982545 
C 425.271745 61.274985 425.785237 62.514665 426.69913 63.428558 
C 427.613023 64.342451 428.852702 64.855943 430.145142 64.855943 
z
" clip-path="url(#p7e56cba291)" style="fill: #971f30; fill-opacity: 0.9; stroke: #ffffff; stroke-opacity: 0.9; stroke-width: 0.8"/>
    <path d="M 430.145142 64.855943 
C 431.437582 64.855943 432.677261 64.342451 433.591154 63.428558 
C 434.505047 62.514665 435.018539 61.274985 435.018539 59.982545 
C 435.018539 58.690105 434.505047 57.450426 433.591154 56.536533 
C 432.677261 55.62264 431.437582 55.109148 430.145142 55.109148 
C 428.852702 55.109148 427.613023 55.62264 426.69913 56.536533 
C 425.785237 57.450426 425.271745 58.690105 425.271745 59.982545 
C 425.271745 61.274985 425.785237 62.514665 426.69913 63.428558 
C 427.613023 64.342451 428.852702 64.855943 430.145142 64.855943 
z
" clip-path="url(#p7e56cba291)" style="fill: #971f30; fill-opacity: 0.9; stroke: #ffffff; stroke-opacity: 0.9; stroke-width: 0.8"/>
    <path d="M 101.432415 64.855943 
C 102.724855 64.855943 103.964534 64.342451 104.878427 63.428558 
C 105.79232 62.514665 106.305812 61.274985 106.305812 59.982545 
C 106.305812 58.690105 105.79232 57.450426 104.878427 56.536533 
C 103.964534 55.62264 102.724855 55.109148 101.432415 55.109148 
C 100.139975 55.109148 98.900296 55.62264 97.986403 56.536533 
C 97.072509 57.450426 96.559018 58.690105 96.559018 59.982545 
C 96.559018 61.274985 97.072509 62.514665 97.986403 63.428558 
C 98.900296 64.342451 100.139975 64.855943 101.432415 64.855943 
z
" clip-path="url(#p7e56cba291)" style="fill: #971f30; fill-opacity: 0.9; stroke: #ffffff; stroke-opacity: 0.9; stroke-width: 0.8"/>
    <path d="M 649.28696 114.706124 
C 650.5794 114.706124 651.819079 114.192633 652.732972 113.278739 
C 653.646866 112.364846 654.160357 111.125167 654.160357 109.832727 
C 654.160357 108.540287 653.646866 107.300608 652.732972 106.386715 
C 651.819079 105.472822 650.5794 104.95933 649.28696 104.95933 
C 647.99452 104.95933 646.754841 105.472822 645.840948 106.386715 
C 644.927055 107.300608 644.413563 108.540287 644.413563 109.832727 
C 644.413563 111.125167 644.927055 112.364846 645.840948 113.278739 
C 646.754841 114.192633 647.99452 114.706124 649.28696 114.706124 
z
" clip-path="url(#p7e56cba291)" style="fill: #971f30; fill-opacity: 0.9; stroke: #ffffff; stroke-opacity: 0.9; stroke-width: 0.8"/>
    <path d="M 393.621506 114.706124 
C 394.913946 114.706124 396.153625 114.192633 397.067518 113.278739 
C 397.981411 112.364846 398.494903 111.125167 398.494903 109.832727 
C 398.494903 108.540287 397.981411 107.300608 397.067518 106.386715 
C 396.153625 105.472822 394.913946 104.95933 393.621506 104.95933 
C 392.329066 104.95933 391.089387 105.472822 390.175493 106.386715 
C 389.2616 107.300608 388.748109 108.540287 388.748109 109.832727 
C 388.748109 111.125167 389.2616 112.364846 390.175493 113.278739 
C 391.089387 114.192633 392.329066 114.706124 393.621506 114.706124 
z
" clip-path="url(#p7e56cba291)" style="fill: #971f30; fill-opacity: 0.9; stroke: #ffffff; stroke-opacity: 0.9; stroke-width: 0.8"/>
    <path d="M 247.52696 114.706124 
C 248.8194 114.706124 250.059079 114.192633 250.972972 113.278739 
C 251.886866 112.364846 252.400357 111.125167 252.400357 109.832727 
C 252.400357 108.540287 251.886866 107.300608 250.972972 106.386715 
C 250.059079 105.472822 248.8194 104.95933 247.52696 104.95933 
C 246.23452 104.95933 244.994841 105.472822 244.080948 106.386715 
C 243.167055 107.300608 242.653563 108.540287 242.653563 109.832727 
C 242.653563 111.125167 243.167055 112.364846 244.080948 113.278739 
C 244.994841 114.192633 246.23452 114.706124 247.52696 114.706124 
z
" clip-path="url(#p7e56cba291)" style="fill: #971f30; fill-opacity: 0.9; stroke: #ffffff; stroke-opacity: 0.9; stroke-width: 0.8"/>
    <path d="M 247.52696 114.706124 
C 248.8194 114.706124 250.059079 114.192633 250.972972 113.278739 
C 251.886866 112.364846 252.400357 111.125167 252.400357 109.832727 
C 252.400357 108.540287 251.886866 107.300608 250.972972 106.386715 
C 250.059079 105.472822 248.8194 104.95933 247.52696 104.95933 
C 246.23452 104.95933 244.994841 105.472822 244.080948 106.386715 
C 243.167055 107.300608 242.653563 108.540287 242.653563 109.832727 
C 242.653563 111.125167 243.167055 112.364846 244.080948 113.278739 
C 244.994841 114.192633 246.23452 114.706124 247.52696 114.706124 
z
" clip-path="url(#p7e56cba291)" style="fill: #971f30; fill-opacity: 0.9; stroke: #ffffff; stroke-opacity: 0.9; stroke-width: 0.8"/>
    <path d="M 612.763324 114.706124 
C 614.055764 114.706124 615.295443 114.192633 616.209336 113.278739 
C 617.123229 112.364846 617.636721 111.125167 617.636721 109.832727 
C 617.636721 108.540287 617.123229 107.300608 616.209336 106.386715 
C 615.295443 105.472822 614.055764 104.95933 612.763324 104.95933 
C 611.470884 104.95933 610.231205 105.472822 609.317312 106.386715 
C 608.403419 107.300608 607.889927 108.540287 607.889927 109.832727 
C 607.889927 111.125167 608.403419 112.364846 609.317312 113.278739 
C 610.231205 114.192633 611.470884 114.706124 612.763324 114.706124 
z
" clip-path="url(#p7e56cba291)" style="fill: #971f30; fill-opacity: 0.9; stroke: #ffffff; stroke-opacity: 0.9; stroke-width: 0.8"/>
    <path d="M 430.145142 314.106852 
C 431.437582 314.106852 432.677261 313.59336 433.591154 312.679467 
C 434.505047 311.765574 435.018539 310.525895 435.018539 309.233455 
C 435.018539 307.941015 434.505047 306.701335 433.591154 305.787442 
C 432.677261 304.873549 431.437582 304.360057 430.145142 304.360057 
C 428.852702 304.360057 427.613023 304.873549 426.69913 305.787442 
C 425.785237 306.701335 425.271745 307.941015 425.271745 309.233455 
C 425.271745 310.525895 425.785237 311.765574 426.69913 312.679467 
C 427.613023 313.59336 428.852702 314.106852 430.145142 314.106852 
z
" clip-path="url(#p7e56cba291)" style="fill: #971f30; fill-opacity: 0.9; stroke: #ffffff; stroke-opacity: 0.9; stroke-width: 0.8"/>
    <path d="M 430.145142 314.106852 
C 431.437582 314.106852 432.677261 313.59336 433.591154 312.679467 
C 434.505047 311.765574 435.018539 310.525895 435.018539 309.233455 
C 435.018539 307.941015 434.505047 306.701335 433.591154 305.787442 
C 432.677261 304.873549 431.437582 304.360057 430.145142 304.360057 
C 428.852702 304.360057 427.613023 304.873549 426.69913 305.787442 
C 425.785237 306.701335 425.271745 307.941015 425.271745 309.233455 
C 425.271745 310.525895 425.785237 311.765574 426.69913 312.679467 
C 427.613023 313.59336 428.852702 314.106852 430.145142 314.106852 
z
" clip-path="url(#p7e56cba291)" style="fill: #971f30; fill-opacity: 0.9; stroke: #ffffff; stroke-opacity: 0.9; stroke-width: 0.8"/>
    <path d="M 539.716051 314.106852 
C 541.008491 314.106852 542.24817 313.59336 543.162063 312.679467 
C 544.075956 311.765574 544.589448 310.525895 544.589448 309.233455 
C 544.589448 307.941015 544.075956 306.701335 543.162063 305.787442 
C 542.24817 304.873549 541.008491 304.360057 539.716051 304.360057 
C 538.423611 304.360057 537.183932 304.873549 536.270039 305.787442 
C 535.356146 306.701335 534.842654 307.941015 534.842654 309.233455 
C 534.842654 310.525895 535.356146 311.765574 536.270039 312.679467 
C 537.183932 313.59336 538.423611 314.106852 539.716051 314.106852 
z
" clip-path="url(#p7e56cba291)" style="fill: #971f30; fill-opacity: 0.9; stroke: #ffffff; stroke-opacity: 0.9; stroke-width: 0.8"/>
    <path d="M 539.716051 214.406488 
C 541.008491 214.406488 542.24817 213.892996 543.162063 212.979103 
C 544.075956 212.06521 544.589448 210.825531 544.589448 209.533091 
C 544.589448 208.240651 544.075956 207.000972 543.162063 206.087079 
C 542.24817 205.173186 541.008491 204.659694 539.716051 204.659694 
C 538.423611 204.659694 537.183932 205.173186 536.270039 206.087079 
C 535.356146 207.000972 534.842654 208.240651 534.842654 209.533091 
C 534.842654 210.825531 535.356146 212.06521 536.270039 212.979103 
C 537.183932 213.892996 538.423611 214.406488 539.716051 214.406488 
z
" clip-path="url(#p7e56cba291)" style="fill: #971f30; fill-opacity: 0.9; stroke: #ffffff; stroke-opacity: 0.9; stroke-width: 0.8"/>
    <path d="M 539.716051 214.406488 
C 541.008491 214.406488 542.24817 213.892996 543.162063 212.979103 
C 544.075956 212.06521 544.589448 210.825531 544.589448 209.533091 
C 544.589448 208.240651 544.075956 207.000972 543.162063 206.087079 
C 542.24817 205.173186 541.008491 204.659694 539.716051 204.659694 
C 538.423611 204.659694 537.183932 205.173186 536.270039 206.087079 
C 535.356146 207.000972 534.842654 208.240651 534.842654 209.533091 
C 534.842654 210.825531 535.356146 212.06521 536.270039 212.979103 
C 537.183932 213.892996 538.423611 214.406488 539.716051 214.406488 
z
" clip-path="url(#p7e56cba291)" style="fill: #971f30; fill-opacity: 0.9; stroke: #ffffff; stroke-opacity: 0.9; stroke-width: 0.8"/>
    <path d="M 320.574233 314.106852 
C 321.866673 314.106852 323.106352 313.59336 324.020245 312.679467 
C 324.934138 311.765574 325.44763 310.525895 325.44763 309.233455 
C 325.44763 307.941015 324.934138 306.701335 324.020245 305.787442 
C 323.106352 304.873549 321.866673 304.360057 320.574233 304.360057 
C 319.281793 304.360057 318.042114 304.873549 317.128221 305.787442 
C 316.214328 306.701335 315.700836 307.941015 315.700836 309.233455 
C 315.700836 310.525895 316.214328 311.765574 317.128221 312.679467 
C 318.042114 313.59336 319.281793 314.106852 320.574233 314.106852 
z
" clip-path="url(#p7e56cba291)" style="fill: #971f30; fill-opacity: 0.9; stroke: #ffffff; stroke-opacity: 0.9; stroke-width: 0.8"/>
    <path d="M 503.192415 214.406488 
C 504.484855 214.406488 505.724534 213.892996 506.638427 212.979103 
C 507.55232 212.06521 508.065812 210.825531 508.065812 209.533091 
C 508.065812 208.240651 507.55232 207.000972 506.638427 206.087079 
C 505.724534 205.173186 504.484855 204.659694 503.192415 204.659694 
C 501.899975 204.659694 500.660296 205.173186 499.746403 206.087079 
C 498.832509 207.000972 498.319018 208.240651 498.319018 209.533091 
C 498.319018 210.825531 498.832509 212.06521 499.746403 212.979103 
C 500.660296 213.892996 501.899975 214.406488 503.192415 214.406488 
z
" clip-path="url(#p7e56cba291)" style="fill: #971f30; fill-opacity: 0.9; stroke: #ffffff; stroke-opacity: 0.9; stroke-width: 0.8"/>
    <path d="M 649.28696 215.656815 
C 650.910991 215.656815 652.468724 215.011581 653.617087 213.863218 
C 654.76545 212.714855 655.410685 211.157122 655.410685 209.533091 
C 655.410685 207.90906 654.76545 206.351327 653.617087 205.202964 
C 652.468724 204.054601 650.910991 203.409367 649.28696 203.409367 
C 647.66293 203.409367 646.105196 204.054601 644.956833 205.202964 
C 643.80847 206.351327 643.163236 207.90906 643.163236 209.533091 
C 643.163236 211.157122 643.80847 212.714855 644.956833 213.863218 
C 646.105196 215.011581 647.66293 215.656815 649.28696 215.656815 
z
" clip-path="url(#p7e56cba291)" style="fill: #971f30; fill-opacity: 0.9; stroke: #b28855; stroke-opacity: 0.9; stroke-width: 1.8"/>
    <path d="M 539.716051 215.656815 
C 541.340082 215.656815 542.897815 215.011581 544.046178 213.863218 
C 545.194541 212.714855 545.839775 211.157122 545.839775 209.533091 
C 545.839775 207.90906 545.194541 206.351327 544.046178 205.202964 
C 542.897815 204.054601 541.340082 203.409367 539.716051 203.409367 
C 538.09202 203.409367 536.534287 204.054601 535.385924 205.202964 
C 534.237561 206.351327 533.592327 207.90906 533.592327 209.533091 
C 533.592327 211.157122 534.237561 212.714855 535.385924 213.863218 
C 536.534287 215.011581 538.09202 215.656815 539.716051 215.656815 
z
" clip-path="url(#p7e56cba291)" style="fill: #971f30; fill-opacity: 0.9; stroke: #b28855; stroke-opacity: 0.9; stroke-width: 1.8"/>
    <path d="M 612.763324 215.656815 
C 614.387355 215.656815 615.945088 215.011581 617.093451 213.863218 
C 618.241814 212.714855 618.887048 211.157122 618.887048 209.533091 
C 618.887048 207.90906 618.241814 206.351327 617.093451 205.202964 
C 615.945088 204.054601 614.387355 203.409367 612.763324 203.409367 
C 611.139293 203.409367 609.58156 204.054601 608.433197 205.202964 
C 607.284834 206.351327 606.6396 207.90906 606.6396 209.533091 
C 606.6396 211.157122 607.284834 212.714855 608.433197 213.863218 
C 609.58156 215.011581 611.139293 215.656815 612.763324 215.656815 
z
" clip-path="url(#p7e56cba291)" style="fill: #971f30; fill-opacity: 0.9; stroke: #b28855; stroke-opacity: 0.9; stroke-width: 1.8"/>
    <path d="M 430.145142 164.556306 
C 431.437582 164.556306 432.677261 164.042814 433.591154 163.128921 
C 434.505047 162.215028 435.018539 160.975349 435.018539 159.682909 
C 435.018539 158.390469 434.505047 157.15079 433.591154 156.236897 
C 432.677261 155.323004 431.437582 154.809512 430.145142 154.809512 
C 428.852702 154.809512 427.613023 155.323004 426.69913 156.236897 
C 425.785237 157.15079 425.271745 158.390469 425.271745 159.682909 
C 425.271745 160.975349 425.785237 162.215028 426.69913 163.128921 
C 427.613023 164.042814 428.852702 164.556306 430.145142 164.556306 
z
" clip-path="url(#p7e56cba291)" style="fill: #971f30; fill-opacity: 0.9; stroke: #ffffff; stroke-opacity: 0.9; stroke-width: 0.8"/>
    <path d="M 430.145142 164.556306 
C 431.437582 164.556306 432.677261 164.042814 433.591154 163.128921 
C 434.505047 162.215028 435.018539 160.975349 435.018539 159.682909 
C 435.018539 158.390469 434.505047 157.15079 433.591154 156.236897 
C 432.677261 155.323004 431.437582 154.809512 430.145142 154.809512 
C 428.852702 154.809512 427.613023 155.323004 426.69913 156.236897 
C 425.785237 157.15079 425.271745 158.390469 425.271745 159.682909 
C 425.271745 160.975349 425.785237 162.215028 426.69913 163.128921 
C 427.613023 164.042814 428.852702 164.556306 430.145142 164.556306 
z
" clip-path="url(#p7e56cba291)" style="fill: #971f30; fill-opacity: 0.9; stroke: #ffffff; stroke-opacity: 0.9; stroke-width: 0.8"/>
    <path d="M 576.239687 314.106852 
C 577.532128 314.106852 578.771807 313.59336 579.6857 312.679467 
C 580.599593 311.765574 581.113085 310.525895 581.113085 309.233455 
C 581.113085 307.941015 580.599593 306.701335 579.6857 305.787442 
C 578.771807 304.873549 577.532128 304.360057 576.239687 304.360057 
C 574.947247 304.360057 573.707568 304.873549 572.793675 305.787442 
C 571.879782 306.701335 571.36629 307.941015 571.36629 309.233455 
C 571.36629 310.525895 571.879782 311.765574 572.793675 312.679467 
C 573.707568 313.59336 574.947247 314.106852 576.239687 314.106852 
z
" clip-path="url(#p7e56cba291)" style="fill: #971f30; fill-opacity: 0.9; stroke: #ffffff; stroke-opacity: 0.9; stroke-width: 0.8"/>
    <path d="M 649.28696 264.25667 
C 650.5794 264.25667 651.819079 263.743178 652.732972 262.829285 
C 653.646866 261.915392 654.160357 260.675713 654.160357 259.383273 
C 654.160357 258.090833 653.646866 256.851154 652.732972 255.937261 
C 651.819079 255.023367 650.5794 254.509876 649.28696 254.509876 
C 647.99452 254.509876 646.754841 255.023367 645.840948 255.937261 
C 644.927055 256.851154 644.413563 258.090833 644.413563 259.383273 
C 644.413563 260.675713 644.927055 261.915392 645.840948 262.829285 
C 646.754841 263.743178 647.99452 264.25667 649.28696 264.25667 
z
" clip-path="url(#p7e56cba291)" style="fill: #971f30; fill-opacity: 0.9; stroke: #ffffff; stroke-opacity: 0.9; stroke-width: 0.8"/>
    <path d="M 466.668778 264.25667 
C 467.961218 264.25667 469.200897 263.743178 470.114791 262.829285 
C 471.028684 261.915392 471.542176 260.675713 471.542176 259.383273 
C 471.542176 258.090833 471.028684 256.851154 470.114791 255.937261 
C 469.200897 255.023367 467.961218 254.509876 466.668778 254.509876 
C 465.376338 254.509876 464.136659 255.023367 463.222766 255.937261 
C 462.308873 256.851154 461.795381 258.090833 461.795381 259.383273 
C 461.795381 260.675713 462.308873 261.915392 463.222766 262.829285 
C 464.136659 263.743178 465.376338 264.25667 466.668778 264.25667 
z
" clip-path="url(#p7e56cba291)" style="fill: #971f30; fill-opacity: 0.9; stroke: #ffffff; stroke-opacity: 0.9; stroke-width: 0.8"/>
    <path d="M 539.716051 164.556306 
C 541.008491 164.556306 542.24817 164.042814 543.162063 163.128921 
C 544.075956 162.215028 544.589448 160.975349 544.589448 159.682909 
C 544.589448 158.390469 544.075956 157.15079 543.162063 156.236897 
C 542.24817 155.323004 541.008491 154.809512 539.716051 154.809512 
C 538.423611 154.809512 537.183932 155.323004 536.270039 156.236897 
C 535.356146 157.15079 534.842654 158.390469 534.842654 159.682909 
C 534.842654 160.975349 535.356146 162.215028 536.270039 163.128921 
C 537.183932 164.042814 538.423611 164.556306 539.716051 164.556306 
z
" clip-path="url(#p7e56cba291)" style="fill: #971f30; fill-opacity: 0.9; stroke: #ffffff; stroke-opacity: 0.9; stroke-width: 0.8"/>
   </g>
   <g id="PathCollection_2">
    <path d="M 279.177199 114.706124 
L 288.923994 114.706124 
L 288.923994 104.95933 
L 279.177199 104.95933 
z
" clip-path="url(#p7e56cba291)" style="fill: #2c6e91; fill-opacity: 0.9; stroke: #ffffff; stroke-opacity: 0.9; stroke-width: 0.8"/>
    <path d="M 571.36629 114.706124 
L 581.113085 114.706124 
L 581.113085 104.95933 
L 571.36629 104.95933 
z
" clip-path="url(#p7e56cba291)" style="fill: #2c6e91; fill-opacity: 0.9; stroke: #ffffff; stroke-opacity: 0.9; stroke-width: 0.8"/>
    <path d="M 425.271745 114.706124 
L 435.018539 114.706124 
L 435.018539 104.95933 
L 425.271745 104.95933 
z
" clip-path="url(#p7e56cba291)" style="fill: #2c6e91; fill-opacity: 0.9; stroke: #ffffff; stroke-opacity: 0.9; stroke-width: 0.8"/>
    <path d="M 534.842654 114.706124 
L 544.589448 114.706124 
L 544.589448 104.95933 
L 534.842654 104.95933 
z
" clip-path="url(#p7e56cba291)" style="fill: #2c6e91; fill-opacity: 0.9; stroke: #ffffff; stroke-opacity: 0.9; stroke-width: 0.8"/>
    <path d="M 571.36629 114.706124 
L 581.113085 114.706124 
L 581.113085 104.95933 
L 571.36629 104.95933 
z
" clip-path="url(#p7e56cba291)" style="fill: #2c6e91; fill-opacity: 0.9; stroke: #ffffff; stroke-opacity: 0.9; stroke-width: 0.8"/>
    <path d="M 498.319018 114.706124 
L 508.065812 114.706124 
L 508.065812 104.95933 
L 498.319018 104.95933 
z
" clip-path="url(#p7e56cba291)" style="fill: #2c6e91; fill-opacity: 0.9; stroke: #ffffff; stroke-opacity: 0.9; stroke-width: 0.8"/>
   </g>
   <g id="PathCollection_3">
    <defs>
     <path id="m6cde4cdba7" d="M 0 -4.873397 
L -4.873397 4.873397 
L 4.873397 4.873397 
z
" style="stroke: #ffffff; stroke-opacity: 0.9; stroke-width: 0.8"/>
    </defs>
    <g clip-path="url(#p7e56cba291)">
     <use xlink:href="#m6cde4cdba7" x="539.716051" y="109.832727" style="fill: #1f7a72; fill-opacity: 0.9; stroke: #ffffff; stroke-opacity: 0.9; stroke-width: 0.8"/>
    </g>
   </g>
   <g id="text_23">
    <text style="font-size: 8.5px; font-family: 'Songti SC', 'STSong', 'PingFang SC', 'Hiragino Sans GB', 'Arial Unicode MS', 'Noto Sans CJK SC', 'DejaVu Sans', sans-serif; text-anchor: middle; fill: #b28855" x="649.28696" y="200.533091" transform="rotate(-0 649.28696 200.533091)">36</text>
   </g>
   <g id="text_24">
    <text style="font-size: 8.5px; font-family: 'Songti SC', 'STSong', 'PingFang SC', 'Hiragino Sans GB', 'Arial Unicode MS', 'Noto Sans CJK SC', 'DejaVu Sans', sans-serif; text-anchor: middle; fill: #b28855" x="539.716051" y="200.533091" transform="rotate(-0 539.716051 200.533091)">37</text>
   </g>
   <g id="text_25">
    <text style="font-size: 8.5px; font-family: 'Songti SC', 'STSong', 'PingFang SC', 'Hiragino Sans GB', 'Arial Unicode MS', 'Noto Sans CJK SC', 'DejaVu Sans', sans-serif; text-anchor: middle; fill: #b28855" x="612.763324" y="200.533091" transform="rotate(-0 612.763324 200.533091)">38</text>
   </g>
   <g id="legend_1">
    <g id="PathCollection_4">
     <path d="M 93.039688 373.706106 
C 94.507318 373.706106 95.915035 373.12301 96.952806 372.085239 
C 97.990578 371.047468 98.573673 369.63975 98.573673 368.17212 
C 98.573673 366.70449 97.990578 365.296772 96.952806 364.259001 
C 95.915035 363.22123 94.507318 362.638134 93.039688 362.638134 
C 91.572057 362.638134 90.16434 363.22123 89.126569 364.259001 
C 88.088797 365.296772 87.505702 366.70449 87.505702 368.17212 
C 87.505702 369.63975 88.088797 371.047468 89.126569 372.085239 
C 90.16434 373.12301 91.572057 373.706106 93.039688 373.706106 
z
" style="fill: #971f30; fill-opacity: 0.9; stroke: #ffffff; stroke-opacity: 0.9; stroke-width: 0.8"/>
    </g>
    <g id="text_26">
     <text style="font-size: 10px; font-family: 'Songti SC', 'STSong', 'PingFang SC', 'Hiragino Sans GB', 'Arial Unicode MS', 'Noto Sans CJK SC', 'DejaVu Sans', sans-serif; text-anchor: start; fill: #2b2325" x="111.039688" y="370.79712" transform="rotate(-0 111.039688 370.79712)">Central</text>
    </g>
    <g id="PathCollection_5">
     <path d="M 166.875665 373.045517 
L 176.62246 373.045517 
L 176.62246 363.298723 
L 166.875665 363.298723 
z
" style="fill: #2c6e91; fill-opacity: 0.9; stroke: #ffffff; stroke-opacity: 0.9; stroke-width: 0.8"/>
    </g>
    <g id="text_27">
     <text style="font-size: 10px; font-family: 'Songti SC', 'STSong', 'PingFang SC', 'Hiragino Sans GB', 'Arial Unicode MS', 'Noto Sans CJK SC', 'DejaVu Sans', sans-serif; text-anchor: start; fill: #2b2325" x="189.749063" y="370.79712" transform="rotate(-0 189.749063 370.79712)">Provincial</text>
    </g>
    <g id="PathCollection_6">
     <g>
      <use xlink:href="#m6cde4cdba7" x="261.36" y="368.17212" style="fill: #1f7a72; fill-opacity: 0.9; stroke: #ffffff; stroke-opacity: 0.9; stroke-width: 0.8"/>
     </g>
    </g>
    <g id="text_28">
     <text style="font-size: 10px; font-family: 'Songti SC', 'STSong', 'PingFang SC', 'Hiragino Sans GB', 'Arial Unicode MS', 'Noto Sans CJK SC', 'DejaVu Sans', sans-serif; text-anchor: start; fill: #2b2325" x="279.36" y="370.79712" transform="rotate(-0 279.36 370.79712)">Municipal</text>
    </g>
   </g>
  </g>
  <g id="text_29">
   <text style="font-weight: 700; font-size: 15px; font-family: 'Songti SC', 'STSong', 'PingFang SC', 'Hiragino Sans GB', 'Arial Unicode MS', 'Noto Sans CJK SC', 'DejaVu Sans', sans-serif; text-anchor: middle; fill: #2b2325" x="365.639688" y="18" transform="rotate(-0 365.639688 18)">Figure 1. Sample coverage by year and document family</text>
  </g>
  <g id="text_30">
   <text style="font-size: 10px; font-family: 'Songti SC', 'STSong', 'PingFang SC', 'Hiragino Sans GB', 'Arial Unicode MS', 'Noto Sans CJK SC', 'DejaVu Sans', sans-serif; text-anchor: start; fill: #6d6063" x="74.039688" y="29.376" transform="rotate(-0 74.039688 29.376)">Color denotes gov level; gold outline marks official_html_rescue files.</text>
  </g>
 </g>
 <defs>
  <clipPath id="p7e56cba291">
   <rect x="74.039688" y="47.52" width="602.64" height="274.176"/>
  </clipPath>
 </defs>
</svg>
